<svg width="32" height="32" viewBox="0 0 32 32" xmlns="http://www.w3.org/2000/svg">
<path d="M25.6875 9.6875C25.6875 4.34581 21.3417 0 16 0C10.6583 0 6.3125 4.34581 6.3125 9.6875C6.3125 14.7129 10.1591 18.8564 15.0625 19.3295V25.75H11.625C11.1073 25.75 10.6875 26.1698 10.6875 26.6875C10.6875 27.2052 11.1073 27.625 11.625 27.625H15.0625V31.0625C15.0625 31.5802 15.4823 32 16 32C16.5177 32 16.9375 31.5802 16.9375 31.0625V27.625H20.375C20.8927 27.625 21.3125 27.2052 21.3125 26.6875C21.3125 26.1698 20.8927 25.75 20.375 25.75H16.9375V19.3295C21.8409 18.8564 25.6875 14.7129 25.6875 9.6875ZM8.1875 9.6875C8.1875 5.37969 11.6922 1.875 16 1.875C20.3078 1.875 23.8125 5.37969 23.8125 9.6875C23.8125 13.9953 20.3078 17.5 16 17.5C11.6922 17.5 8.1875 13.9953 8.1875 9.6875Z"/>
</svg>
