<svg width="32" height="32" viewBox="0 0 32 32" fill="none" xmlns="http://www.w3.org/2000/svg">
<g clip-path="url(#clip0_3:149)">
<path d="M29.1252 5.73699e-06H23.5002C22.9825 5.73699e-06 22.5627 0.419756 22.5627 0.937506C22.5627 1.45526 22.9825 1.87501 23.5002 1.87501H26.8619L21.8024 6.93451C20.184 5.72026 18.1746 5.00001 16.0002 5.00001C13.8258 5.00001 11.8164 5.72026 10.198 6.93451L8.12408 4.86051L9.99314 4.3597C10.4933 4.2257 10.79 3.71163 10.656 3.21151C10.522 2.71145 10.008 2.41451 9.50783 2.54863L7.63876 3.04945L8.13958 1.18038C8.27358 0.680256 7.97683 0.166193 7.4767 0.0321933C6.97633 -0.101932 6.46245 0.194943 6.32851 0.695069L5.8277 2.56413L4.56776 1.30426C4.20164 0.938131 3.60801 0.938131 3.24195 1.30426C2.87583 1.67038 2.87583 2.26394 3.24195 2.63007L4.50189 3.89001L2.63283 4.39082C2.1327 4.52482 1.83595 5.03888 1.96995 5.53901C2.08214 5.95788 2.46095 6.23414 2.87489 6.23414C2.9552 6.23414 3.03683 6.2237 3.11814 6.20195L4.9872 5.70114L4.48639 7.5702C4.35239 8.07032 4.64914 8.58439 5.14926 8.71839C5.23058 8.7402 5.31214 8.75058 5.39251 8.75058C5.80645 8.75058 6.18526 8.47432 6.29745 8.05545L6.79826 6.18639L8.81208 8.2002C7.25945 9.91876 6.3127 12.1946 6.3127 14.6875C6.3127 19.713 10.1593 23.8564 15.0627 24.3295V27H12.2502C11.7325 27 11.3127 27.4198 11.3127 27.9375C11.3127 28.4553 11.7325 28.875 12.2502 28.875H15.0627V31.0625C15.0627 31.5803 15.4825 32 16.0002 32C16.518 32 16.9377 31.5803 16.9377 31.0625V28.875H19.7502C20.268 28.875 20.6877 28.4553 20.6877 27.9375C20.6877 27.4198 20.268 27 19.7502 27H16.9377V24.3295C21.8411 23.8565 25.6877 19.713 25.6877 14.6875C25.6877 12.1946 24.741 9.9187 23.1884 8.20014L28.1877 3.20082V6.56251C28.1877 7.08026 28.6075 7.50001 29.1252 7.50001C29.643 7.50001 30.0627 7.08026 30.0627 6.56251V0.937506C30.0627 0.419756 29.643 5.73699e-06 29.1252 5.73699e-06ZM23.8127 14.6875C23.8127 18.9953 20.308 22.5 16.0002 22.5C11.6924 22.5 8.1877 18.9953 8.1877 14.6875C8.1877 10.3797 11.6924 6.87501 16.0002 6.87501C20.308 6.87501 23.8127 10.3797 23.8127 14.6875Z" fill="#5B5B5B"/>
</g>
<defs>
<clipPath id="clip0_3:149">
<rect width="32" height="32" fill="white"/>
</clipPath>
</defs>
</svg>
